HIERARCHY
ROOT Hips
{
  OFFSET -213.699 104.721 0.752556
  CHANNELS 6 Xposition Yposition Zposition Zrotation Xrotation Yrotation
  JOINT RightUpLeg
  {
    OFFSET -8.9458 -8.66707 0.101652
    CHANNELS 3 Zrotation Xrotation Yrotation
    JOINT RightLeg
    {
      OFFSET 0 -44.4227 1.3727
      CHANNELS 3 Zrotation Xrotation Yrotation
      JOINT RightFoot
      {
        OFFSET 0.253549 -42.0924 -1.46059
        CHANNELS 3 Zrotation Xrotation Yrotation
        JOINT RightToes
        {
          OFFSET 0.04 -4.41509 8.4991
          CHANNELS 3 Zrotation Xrotation Yrotation
          End Site
          {
            OFFSET -0.08 -0.137448 9.77979
          }
        }
      }
    }
  }
  JOINT Spine
  {
    OFFSET 0 11.8905 0
    CHANNELS 3 Zrotation Xrotation Yrotation
    JOINT Spine1
    {
      OFFSET 0 25.6574 0.127663
      CHANNELS 3 Zrotation Xrotation Yrotation
      JOINT HEad
      {
        OFFSET 0 8.73416 0.011341
        CHANNELS 3 Zrotation Xrotation Yrotation
        End Site
        {
          OFFSET -0.29 12.7742 2.51395
        }
      }
      JOINT LeftShoulder1
      {
        OFFSET 8.99 -0.362252 -0.22
        CHANNELS 3 Zrotation Xrotation Yrotation
        JOINT LeftArm
        {
          OFFSET 10.2827 -0.00337999 0.322123
          CHANNELS 3 Zrotation Xrotation Yrotation
          JOINT LeftForeArm
          {
            OFFSET 26.2597 0.099144 -1.42434
            CHANNELS 3 Zrotation Xrotation Yrotation
            JOINT LeftHand
            {
              OFFSET 22.0902 0.085362 1.02216
              CHANNELS 3 Zrotation Xrotation Yrotation
              End Site
              {
                OFFSET 13.419 -0.6 1.50291
              }
            }
          }
        }
      }
      JOINT RightShoulder
      {
        OFFSET -8.99 -0.362252 -0.22
        CHANNELS 3 Zrotation Xrotation Yrotation
        JOINT RightArm
        {
          OFFSET -10.2827 -0.00338 0.322123
          CHANNELS 3 Zrotation Xrotation Yrotation
          JOINT RightForeArm
          {
            OFFSET -26.364 0.099144 -1.42434
            CHANNELS 3 Zrotation Xrotation Yrotation
            JOINT RightHand
            {
              OFFSET -22.0324 0.085362 1.02216
              CHANNELS 3 Zrotation Xrotation Yrotation
              End Site
              {
                OFFSET -13.3284 -0.6 1.50291
              }
            }
          }
        }
      }
    }
  }
  JOINT LeftUpLeg
  {
    OFFSET 8.9458 -8.66707 0.101652
    CHANNELS 3 Zrotation Xrotation Yrotation
    JOINT LeftLeg
    {
      OFFSET 0 -44.4227 1.3727
      CHANNELS 3 Zrotation Xrotation Yrotation
      JOINT LeftFoot
      {
        OFFSET -0.253549 -42.0924 -1.46059
        CHANNELS 3 Zrotation Xrotation Yrotation
        JOINT LeftToes
        {
          OFFSET -0.04 -4.41509 8.4991
          CHANNELS 3 Zrotation Xrotation Yrotation
          End Site
          {
            OFFSET 0.08 -0.047448 9.77979
          }
        }
      }
    }
  }
}
MOTION
Frames:	17
Frame Time:	0.0333333
-204.233 104.652 0.143917 1.06221 0.549669 90.3094 -1.51261 3.29875 -2.89278 -1.37207 8.56053 -11.7791 0.226462 -5.41267 -0.158729 0.0462048 0.000530889 0.662642 -2.21671 -0.849723 -0.753487 0.188165 7.73925 -0.749636 -0.58814 -0.584849 -4.7367 -13.5524 -0.935351 8.0559 -31.777 -72.6375 -34.0457 -2.09771 59.087 7.45843 2.91773 9.66609 -7.29052 14.2142 -0.165913 -5.31509 3.56981 -45.998 -3.91336 -4.67148 23.7245 12.1661 -2.34673 9.7731 4.23606 0.301368 0.27719 2.28645 1.35748 8.58668 12.9745 0.70873 -4.82424 -0.00589479 -1.30511e-009 8.75254e-006 -1.47703e-008 
-204.273 104.652 0.195094 1.19821 0.506688 90.3762 -1.43284 3.43452 -2.87567 -1.35761 8.54788 -11.865 0.108242 -5.40158 -0.158726 0.0462048 0.000530889 0.662642 -2.23728 -0.800301 -0.763687 0.219435 7.92674 -0.770947 -0.681252 -0.620358 -4.80421 -13.4895 -0.914427 7.96682 -32.1071 -72.6722 -34.3202 -2.00403 59.108 7.41412 2.89931 9.66595 -7.29702 14.2793 -0.18574 -5.40368 3.68911 -45.9974 -3.71609 -4.54163 23.457 12.2422 -2.27968 9.78653 3.49271 0.413229 0.357733 2.39177 1.32166 8.64574 12.8021 0.639044 -4.86344 -0.00589513 -1.30511e-009 8.75254e-006 -1.47703e-008 
-204.355 104.656 0.218828 1.17362 0.483606 90.3379 -1.39743 3.3071 -2.83057 -1.35669 8.63036 -11.8821 0.154263 -5.38891 -0.158723 0.0462048 0.000530889 0.662642 -2.22229 -0.631089 -0.751549 0.297768 7.70414 -0.779541 -1.10337 -0.618168 -5.13728 -13.5862 -0.924015 7.99419 -32.4654 -72.6948 -34.787 -1.94303 59.302 7.3968 2.91467 9.6726 -7.25726 14.2505 -0.189088 -5.42176 3.6805 -45.9017 -3.69209 -4.48351 23.6726 12.3316 -2.4806 9.75585 4.70267 0.442862 0.297993 2.40449 1.32556 8.59209 12.8332 0.719892 -4.8055 -0.00589463 -1.30511e-009 8.75254e-006 -1.47703e-008 
-204.431 104.663 0.242967 1.18383 0.532828 90.423 -1.43815 3.26333 -2.84658 -1.34653 8.66105 -11.9447 0.170051 -5.3613 -0.158716 0.0462048 0.000530889 0.662642 -2.35059 -0.381006 -0.799097 0.417443 7.49686 -0.861215 -1.21428 -0.247692 -5.17172 -13.5938 -0.941265 8.07648 -32.4709 -72.5692 -34.7662 -2.0731 59.2826 7.45908 2.85586 9.67568 -7.36377 14.2574 -0.205086 -5.4967 3.68472 -45.9415 -3.57135 -4.55104 24.1315 12.3383 -2.39339 9.7621 4.80944 0.384676 0.219141 2.32247 1.37894 8.6865 12.8272 0.765246 -4.76102 -0.00589425 -1.30511e-009 8.75254e-006 -1.47703e-008 
-204.493 104.664 0.281006 1.12786 0.523419 90.4856 -1.37014 3.12409 -2.77618 -1.37725 8.75416 -12.0828 0.142425 -5.36348 -0.158716 0.0462048 0.000530889 0.662642 -2.42011 -0.472777 -0.807427 0.562618 7.57103 -0.900199 -1.04263 -0.0271264 -4.89631 -13.6379 -0.911481 7.92322 -31.736 -72.4961 -33.9548 -2.20174 58.8199 7.49181 3.02493 9.6673 -6.76831 14.2136 -0.187985 -5.41976 3.57074 -45.9602 -3.79694 -4.59141 24.1916 12.4083 -2.28497 9.77036 4.93039 0.394242 0.0952256 2.26956 1.43602 8.7054 12.849 0.626436 -4.70213 -0.00589375 -1.30511e-009 8.75254e-006 -1.47703e-008 
-204.542 104.675 0.329626 1.05704 0.506677 90.6535 -1.31996 3.02088 -2.7541 -1.34313 8.7793 -12.3008 0.179178 -5.31644 -0.158704 0.0462048 0.000530889 0.662642 -2.57609 -0.447912 -0.873433 0.782102 7.41766 -1.0132 -0.880994 0.265776 -4.43309 -13.611 -0.891545 7.83181 -31.153 -72.3991 -33.2781 -2.35597 58.6289 7.55427 3.09387 9.66533 -6.48169 14.323 -0.176013 -5.35422 3.29697 -45.9796 -3.9526 -4.62661 24.1759 12.3772 -2.11752 9.78425 5.02628 0.455948 -0.0196938 2.28283 1.42468 8.67983 12.5997 0.681116 -4.63458 -0.00589318 -1.30511e-009 8.75254e-006 -1.47703e-008 
-204.595 104.678 0.363534 1.07193 0.50091 90.7254 -1.3009 3.03483 -2.77614 -1.30603 8.73253 -12.3688 0.0815019 -5.29539 -0.157609 0.0462048 0.000530889 0.662642 -2.56316 -0.22605 -0.898001 0.748444 7.14725 -1.03305 -0.689617 0.29219 -4.4013 -13.5725 -0.866394 7.71695 -30.7702 -72.4603 -32.8734 -2.3436 58.7408 7.55553 3.20905 9.65286 -6.51718 14.5003 -0.216575 -5.52951 3.2466 -45.9403 -3.73452 -4.59455 24.3085 12.2621 -2.04544 9.7918 4.91139 0.488963 -0.0379004 2.29291 1.42476 8.66579 12.5023 0.611608 -4.6004 -0.00589289 -1.30511e-009 8.75254e-006 -1.47703e-008 
-204.666 104.694 0.382777 1.07108 0.514085 90.6777 -1.33948 3.07211 -2.82483 -1.23809 8.55173 -12.2551 -0.0763968 -5.21198 -0.154742 0.0462048 0.000530889 0.662642 -2.40823 -0.148272 -0.84161 0.53398 7.11312 -0.92794 -0.611764 0.209457 -4.9597 -13.5127 -0.845797 7.62787 -31.0838 -72.4688 -33.2075 -2.30145 58.889 7.54472 3.2779 9.64427 -6.5961 14.6835 -0.257155 -5.70225 3.17637 -45.9419 -3.63673 -4.60747 24.3238 12.1537 -2.09428 9.78795 4.8662 0.468246 -0.0359067 2.25963 1.45122 8.56869 12.568 0.631225 -4.47543 -0.00589187 -1.30511e-009 8.75254e-006 -1.47703e-008 
-204.722 104.678 0.404809 1.1089 0.522252 90.6229 -1.35793 2.93901 -2.85513 -1.21764 8.83859 -12.162 -0.141576 -5.32054 -0.153233 0.0462048 0.000530889 0.662642 -2.38781 -0.00205292 -0.830803 0.503955 7.03281 -0.909326 -0.417538 0.216183 -4.93665 -13.448 -0.847718 7.64903 -30.9848 -72.3845 -33.0765 -2.40299 58.8397 7.59082 3.29994 9.6439 -6.50001 14.7371 -0.261771 -5.71859 3.17365 -45.8332 -3.58933 -4.47424 23.9137 12.0879 -2.21265 9.77884 4.72802 0.451925 -0.0438543 2.23233 1.47399 8.6003 12.6543 0.685233 -4.48097 -0.00589192 -1.30511e-009 8.75254e-006 -1.47703e-008 
-204.762 104.688 0.422619 1.08239 0.467239 90.643 -1.27471 2.71546 -2.81711 -1.23416 9.1922 -12.2571 0.0208953 -5.30822 -0.152224 0.0462048 0.000530889 0.662642 -2.25426 -0.0743858 -0.84022 0.469892 7.10967 -0.900134 -0.28977 0.35135 -5.00336 -13.4381 -0.84004 7.61333 -31.0853 -72.4217 -33.1273 -2.38797 59.1395 7.60335 3.26901 9.64465 -6.61963 14.8277 -0.310957 -5.93613 3.34631 -45.7954 -3.24393 -4.3645 23.65 12.0185 -2.21495 9.77945 4.66095 0.497939 -0.0107659 2.22523 1.49186 8.40508 12.6581 0.770737 -4.40662 -0.00589133 -1.30511e-009 8.75254e-006 -1.47703e-008 
-204.809 104.688 0.457341 1.10617 0.468506 90.6802 -1.2574 2.83919 -2.80167 -1.20351 8.91886 -12.272 -0.122876 -5.26751 -0.151632 0.0462048 0.000530889 0.662642 -2.23589 0.0122348 -0.863587 0.402308 7.06914 -0.920554 -0.427684 0.430794 -5.30672 -13.4978 -0.858735 7.69366 -31.0818 -72.2446 -33.1938 -2.59596 59.0424 7.69816 3.39956 9.63545 -6.42533 14.8664 -0.438493 -6.51908 4.01918 -45.7464 -2.15146 -4.21026 23.8722 11.8558 -2.34294 9.7698 4.52879 0.548022 -0.0844336 2.26931 1.48204 8.56508 12.5876 0.559034 -4.4662 -0.0058918 -1.30511e-009 8.75254e-006 -1.47703e-008 
-204.866 104.688 0.50231 1.11083 0.46746 90.7694 -1.22526 2.83147 -2.76468 -1.20642 8.87733 -12.3441 0.0354741 -5.21705 -0.151352 0.0462048 0.000530889 0.662642 -2.35179 0.216007 -0.924067 0.472795 6.88508 -1.00211 -0.609826 0.642459 -5.68478 -13.4568 -0.873545 7.77362 -31.1768 -72.0831 -33.2745 -2.75397 58.9861 7.77123 3.54615 9.62712 -6.11415 14.93 -0.445127 -6.54098 4.12346 -45.7024 -2.00912 -4.20175 24.0503 11.7829 -2.31576 9.77097 4.63045 0.580912 -0.203985 2.28186 1.48285 8.70263 12.4708 0.591935 -4.48819 -0.00556138 -1.30511e-009 8.75254e-006 -1.47703e-008 
-204.924 104.687 0.542177 1.12422 0.467545 90.764 -1.19998 2.83798 -2.75431 -1.18359 8.8153 -12.3568 -0.146195 -5.22 -0.151291 0.0462048 0.000530889 0.662642 -2.32969 0.468837 -0.923568 0.402406 6.63726 -0.991236 -0.543977 0.975955 -5.76247 -13.5204 -0.875383 7.77004 -31.7069 -72.1686 -33.8849 -2.64153 59.4411 7.74765 3.44282 9.6314 -6.39645 15.0608 -0.424304 -6.43009 3.88009 -45.6182 -2.30113 -4.16774 24.1209 11.835 -2.21948 9.77971 4.59585 0.625887 -0.268144 2.3055 1.47645 8.8232 12.422 0.451556 -4.47672 -0.00439828 -1.30511e-009 8.75254e-006 -1.47703e-008 
-204.99 104.687 0.585549 1.13545 0.49222 90.8954 -1.18755 2.79803 -2.75416 -1.18484 8.87857 -12.4926 -0.199922 -5.21618 -0.151328 0.0462048 0.000530889 0.662642 -2.39593 0.528213 -1.00667 0.4997 6.698 -1.09304 -0.580236 1.22596 -5.55795 -13.7404 -0.926803 7.97744 -32.8613 -72.1363 -35.2836 -2.5557 59.7266 7.72536 3.24061 9.64869 -6.57149 15.0329 -0.264888 -5.70482 3.3254 -45.5128 -3.48052 -4.21531 23.8169 12.0459 -2.17579 9.78301 4.64499 0.62831 -0.286843 2.28163 1.47555 8.76938 12.3299 0.439607 -4.42301 -0.00319023 -1.30511e-009 8.75254e-006 -1.47703e-008 
-205.037 104.687 0.635841 1.16255 0.509819 90.8618 -1.16593 2.81397 -2.72068 -1.20928 8.83406 -12.51 -0.132548 -5.21826 -0.151356 0.0462048 0.000530889 0.662642 -2.47087 0.517999 -1.0119 0.562224 6.72134 -1.11594 -0.550879 1.78271 -5.46358 -13.8713 -0.922179 7.93023 -33.2974 -72.1829 -35.6703 -2.45953 60.0454 7.70022 3.13703 9.65293 -6.90517 14.9391 -0.221249 -5.51403 3.58069 -45.4425 -3.50279 -4.13942 23.5941 12.108 -2.33969 9.77026 4.51349 0.633534 -0.379377 2.27962 1.49051 8.93991 12.3036 0.529093 -4.37354 -0.00200156 -1.30511e-009 8.75254e-006 -1.47703e-008 
-205.073 104.687 0.683073 1.15509 0.496231 90.8543 -1.12522 2.73017 -2.68517 -1.20716 8.94223 -12.5314 -0.00135636 -5.22188 -0.151267 0.0462048 0.000530889 0.662642 -2.46562 0.477996 -1.01564 0.592349 6.71123 -1.12163 -0.408683 2.48533 -5.20819 -14.2033 -0.948412 7.98728 -34.6782 -72.1884 -37.2234 -2.2831 60.5002 7.64483 3.34978 9.62934 -6.96755 15.1072 -0.255737 -5.65711 3.92194 -45.5907 -2.95901 -4.22796 23.8921 12.026 -2.18608 9.7831 4.5425 0.666739 -0.423759 2.27268 1.51235 8.96738 12.2809 0.565819 -4.34318 -0.000896288 -1.30511e-009 8.75254e-006 -1.47703e-008 
-205.103 104.687 0.718312 1.17777 0.515641 90.8725 -1.12749 2.74615 -2.70289 -1.19596 8.89759 -12.5132 -0.256535 -5.1973 -0.150945 0.0462048 0.000530889 0.662642 -2.54609 0.368036 -1.09992 0.714965 6.86536 -1.23359 -0.61145 3.20581 -5.00488 -14.9823 -1.06925 8.39842 -35.7511 -72.0017 -38.9189 -2.41609 60.7788 7.73079 3.45914 9.62238 -6.73476 15.0733 -0.271798 -5.73399 4.8417 -45.8302 -1.977 -4.38623 24.4392 11.9556 -2.26352 9.77653 4.53474 0.661765 -0.368577 2.25943 1.52793 8.86703 12.3462 0.397859 -4.3395 6.16818e-005 -1.30511e-009 8.75254e-006 -1.47703e-008 
